TITLE ""
FILE "Step2_Track43.mp3" MP3
  TRACK 01 AUDIO
    TITLE "Step2_Track43_01"
    INDEX 01 00:00:00
  TRACK 02 AUDIO
    TITLE "Step2_Track43_02"
    INDEX 01 00:00:24
  TRACK 03 AUDIO
    TITLE "Step2_Track43_03"
    INDEX 01 00:02:03
  TRACK 04 AUDIO
    TITLE "Step2_Track43_04"
    INDEX 01 00:02:62
  TRACK 05 AUDIO
    TITLE "Step2_Track43_05"
    INDEX 01 00:03:58
  TRACK 06 AUDIO
    TITLE "Step2_Track43_06"
    INDEX 01 00:03:69
  TRACK 07 AUDIO
    TITLE "Step2_Track43_07"
    INDEX 01 00:06:62
  TRACK 08 AUDIO
    TITLE "Step2_Track43_08"
    INDEX 01 00:07:22
  TRACK 09 AUDIO
    TITLE "Step2_Track43_09"
    INDEX 01 00:08:16
  TRACK 10 AUDIO
    TITLE "Step2_Track43_10"
    INDEX 01 00:08:18
  TRACK 11 AUDIO
    TITLE "Step2_Track43_11"
    INDEX 01 00:10:64
  TRACK 12 AUDIO
    TITLE "Step2_Track43_12"
    INDEX 01 00:11:14
  TRACK 13 AUDIO
    TITLE "Step2_Track43_13"
    INDEX 01 00:12:15
  TRACK 14 AUDIO
    TITLE "Step2_Track43_14"
    INDEX 01 00:12:23
  TRACK 15 AUDIO
    TITLE "Step2_Track43_15"
    INDEX 01 00:14:46
  TRACK 16 AUDIO
    TITLE "Step2_Track43_16"
    INDEX 01 00:15:04
  TRACK 17 AUDIO
    TITLE "Step2_Track43_17"
    INDEX 01 00:16:03
  TRACK 18 AUDIO
    TITLE "Step2_Track43_18"
    INDEX 01 00:16:29
  TRACK 19 AUDIO
    TITLE "Step2_Track43_19"
    INDEX 01 00:19:19
  TRACK 20 AUDIO
    TITLE "Step2_Track43_20"
    INDEX 01 00:19:55
  TRACK 21 AUDIO
    TITLE "Step2_Track43_21"
    INDEX 01 00:20:48
  TRACK 22 AUDIO
    TITLE "Step2_Track43_22"
    INDEX 01 00:20:66
  TRACK 23 AUDIO
    TITLE "Step2_Track43_23"
    INDEX 01 00:23:17
  TRACK 24 AUDIO
    TITLE "Step2_Track43_24"
    INDEX 01 00:23:29
  TRACK 25 AUDIO
    TITLE "Step2_Track43_25"
    INDEX 01 00:24:30
  TRACK 26 AUDIO
    TITLE "Step2_Track43_26"
    INDEX 01 00:24:44
  TRACK 27 AUDIO
    TITLE "Step2_Track43_27"
    INDEX 01 00:27:46
  TRACK 28 AUDIO
    TITLE "Step2_Track43_28"
    INDEX 01 00:28:13
  TRACK 29 AUDIO
    TITLE "Step2_Track43_29"
    INDEX 01 00:29:08
  TRACK 30 AUDIO
    TITLE "Step2_Track43_30"
    INDEX 01 00:29:24
  TRACK 31 AUDIO
    TITLE "Step2_Track43_31"
    INDEX 01 00:31:36
  TRACK 32 AUDIO
    TITLE "Step2_Track43_32"
    INDEX 01 00:31:56
  TRACK 33 AUDIO
    TITLE "Step2_Track43_33"
    INDEX 01 00:32:46
  TRACK 34 AUDIO
    TITLE "Step2_Track43_34"
    INDEX 01 00:32:61
  TRACK 35 AUDIO
    TITLE "Step2_Track43_35"
    INDEX 01 00:35:18
  TRACK 36 AUDIO
    TITLE "Step2_Track43_36"
    INDEX 01 00:35:48
  TRACK 37 AUDIO
    TITLE "Step2_Track43_37"
    INDEX 01 00:36:45
  TRACK 38 AUDIO
    TITLE "Step2_Track43_38"
    INDEX 01 00:36:55
  TRACK 39 AUDIO
    TITLE "Step2_Track43_39"
    INDEX 01 00:39:67
  TRACK 40 AUDIO
    TITLE "Step2_Track43_40"
    INDEX 01 00:40:14
  TRACK 41 AUDIO
    TITLE "Step2_Track43_41"
    INDEX 01 00:41:07
  TRACK 42 AUDIO
    TITLE "Step2_Track43_42"
    INDEX 01 00:41:21
  TRACK 43 AUDIO
    TITLE "Step2_Track43_43"
    INDEX 01 00:43:61
